<?xml version="1.0" encoding="UTF-8"?>
<svg width="40px" height="40px" viewBox="0 0 40 40" version="1.1" xmlns="http://www.w3.org/2000/svg" xmlns:xlink="http://www.w3.org/1999/xlink">
    <title>m/chatbot/avatar/40/chatbot</title>
    <defs>
        <linearGradient x1="0%" y1="0%" x2="100%" y2="100%" id="linearGradient-1">
            <stop stop-color="#019CAE" offset="0%"></stop>
            <stop stop-color="#307FC1" offset="100%"></stop>
        </linearGradient>
    </defs>
    <g id="m/chatbot/avatar/40/chatbot" stroke="none" stroke-width="1" fill="none" fill-rule="evenodd">
        <g id="Group" transform="translate(4, 5)" fill="url(#linearGradient-1)">
            <path d="M24.2386032,0 C28.5236769,0 32,3.32497238 32,7.42556371 L32,19.4798882 C32,23.5804796 28.5236769,26.9033725 24.2386032,26.9033725 L19.9404851,26.9033725 L12.061689,32 L12.063863,26.9033725 L7.76139683,26.9033725 C3.47414906,26.9033725 0,23.5804796 0,19.4798882 L0,7.42556371 C0,3.32497238 3.47414906,0 7.76139683,0 Z M24.6038454,3.98830333 L7.39832869,3.98830333 C5.45254433,3.98830333 3.87417623,5.49795308 3.87417623,7.35902268 L3.87417623,19.5505881 C3.87417623,21.4137371 5.45254433,22.9213074 7.39832869,22.9213074 L12.0660371,22.9213074 L12.0660371,26.9033725 L20.4687818,22.9213074 L24.6038454,22.9213074 C26.5496297,22.9213074 28.1279978,21.4137371 28.1279978,19.5505881 L28.1279978,7.35902268 C28.1279978,5.49795308 26.5496297,3.98830333 24.6038454,3.98830333 Z M9.6322848,7.63622847 C10.5027787,7.63622847 11.0652082,8.20598609 11.0652082,9.08765482 L11.0652082,18.0521879 C11.0652082,18.9338567 10.5027787,19.5036143 9.6322848,19.5036143 C8.7515728,19.5036143 8.1824037,18.9338567 8.1824037,18.0521879 L8.1824037,9.08765482 C8.1824037,8.20598609 8.7515728,7.63622847 9.6322848,7.63622847 Z M17.2411495,7.73391903 C21.359038,7.73391903 23.8176833,9.91563324 23.8176833,13.5699838 C23.8176833,17.2243343 21.359038,19.4060485 17.2411495,19.4060485 L13.8580936,19.4060485 C12.9367267,19.4060485 12.341034,18.8364988 12.341034,17.955038 L12.341034,9.1849295 C12.341034,8.30346871 12.9367267,7.73391903 13.8580936,7.73391903 Z M17.3887683,10.3803808 L15.2955826,10.3803808 L15.2955826,16.9660719 L17.3887683,16.9660719 C19.612615,16.9660719 20.887919,15.7658379 20.887919,13.6731224 C20.887919,11.5806147 19.612615,10.3803808 17.3887683,10.3803808 Z" id="Combined-Shape"></path>
        </g>
    </g>
</svg>